<mxfile host="65bd71144e">
    <diagram id="V-Rkrh_fIMFpoSnR_kjD" name="Page-1">
        <mxGraphModel dx="655" dy="532" grid="1" gridSize="10" guides="1" tooltips="1" connect="1" arrows="1" fold="1" page="1" pageScale="1" pageWidth="850" pageHeight="1400" math="0" shadow="0">
            <root>
                <mxCell id="0"/>
                <mxCell id="1" parent="0"/>
                <mxCell id="2" value="" style="edgeStyle=none;html=1;fontColor=#212121;fillColor=#66FFFF;labelBackgroundColor=none;" parent="1" source="3" target="12" edge="1">
                    <mxGeometry relative="1" as="geometry"/>
                </mxCell>
                <mxCell id="3" value="&lt;font color=&quot;#212121&quot;&gt;main.js&lt;/font&gt;" style="whiteSpace=wrap;html=1;fillColor=#66FFFF;labelBackgroundColor=none;" parent="1" vertex="1">
                    <mxGeometry x="80" y="40" width="120" height="60" as="geometry"/>
                </mxCell>
                <mxCell id="4" value="" style="edgeStyle=none;html=1;fontColor=#212121;fillColor=#66FFFF;labelBackgroundColor=none;" parent="1" source="5" target="13" edge="1">
                    <mxGeometry relative="1" as="geometry"/>
                </mxCell>
                <mxCell id="5" value="&lt;font color=&quot;#212121&quot;&gt;shippingShipsList.js&lt;/font&gt;" style="whiteSpace=wrap;html=1;fillColor=#66FFFF;labelBackgroundColor=none;" parent="1" vertex="1">
                    <mxGeometry x="240" y="40" width="120" height="60" as="geometry"/>
                </mxCell>
                <mxCell id="6" value="" style="edgeStyle=none;html=1;fontColor=#212121;fillColor=#66FFFF;labelBackgroundColor=none;" parent="1" source="7" target="14" edge="1">
                    <mxGeometry relative="1" as="geometry"/>
                </mxCell>
                <mxCell id="7" value="&lt;font color=&quot;#212121&quot;&gt;haulerList.js&lt;/font&gt;" style="whiteSpace=wrap;html=1;fillColor=#66FFFF;labelBackgroundColor=none;" parent="1" vertex="1">
                    <mxGeometry x="400" y="40" width="120" height="60" as="geometry"/>
                </mxCell>
                <mxCell id="8" value="" style="edgeStyle=none;html=1;fontColor=#212121;fillColor=#66FFFF;labelBackgroundColor=none;" parent="1" source="9" target="15" edge="1">
                    <mxGeometry relative="1" as="geometry"/>
                </mxCell>
                <mxCell id="9" value="&lt;font color=&quot;#212121&quot;&gt;dockList.js&lt;/font&gt;" style="whiteSpace=wrap;html=1;fillColor=#66FFFF;labelBackgroundColor=none;" parent="1" vertex="1">
                    <mxGeometry x="560" y="40" width="120" height="60" as="geometry"/>
                </mxCell>
                <mxCell id="10" value="" style="edgeStyle=none;html=1;fontColor=#212121;fillColor=#66FFFF;labelBackgroundColor=none;" parent="1" source="11" target="16" edge="1">
                    <mxGeometry relative="1" as="geometry"/>
                </mxCell>
                <mxCell id="11" value="&lt;font color=&quot;#212121&quot;&gt;database.js&lt;/font&gt;" style="whiteSpace=wrap;html=1;fillColor=#66FFFF;labelBackgroundColor=none;" parent="1" vertex="1">
                    <mxGeometry x="720" y="40" width="120" height="60" as="geometry"/>
                </mxCell>
                <mxCell id="12" value="&lt;font color=&quot;#212121&quot;&gt;main.js&lt;/font&gt;" style="whiteSpace=wrap;html=1;fillColor=#66FFFF;labelBackgroundColor=none;" parent="1" vertex="1">
                    <mxGeometry x="80" y="770" width="120" height="60" as="geometry"/>
                </mxCell>
                <mxCell id="13" value="&lt;span style=&quot;color: rgb(33, 33, 33);&quot;&gt;shippingShipsList.js&lt;/span&gt;" style="whiteSpace=wrap;html=1;fillColor=#66FFFF;labelBackgroundColor=none;" parent="1" vertex="1">
                    <mxGeometry x="240" y="770" width="120" height="60" as="geometry"/>
                </mxCell>
                <mxCell id="14" value="&lt;span style=&quot;color: rgb(33, 33, 33);&quot;&gt;haulerList.js&lt;/span&gt;" style="whiteSpace=wrap;html=1;fillColor=#66FFFF;labelBackgroundColor=none;" parent="1" vertex="1">
                    <mxGeometry x="400" y="770" width="120" height="60" as="geometry"/>
                </mxCell>
                <mxCell id="15" value="&lt;span style=&quot;color: rgb(33, 33, 33);&quot;&gt;dockList.js&lt;/span&gt;" style="whiteSpace=wrap;html=1;fillColor=#66FFFF;labelBackgroundColor=none;" parent="1" vertex="1">
                    <mxGeometry x="560" y="770" width="120" height="60" as="geometry"/>
                </mxCell>
                <mxCell id="16" value="&lt;font color=&quot;#212121&quot;&gt;database.js&lt;/font&gt;" style="whiteSpace=wrap;html=1;fillColor=#66FFFF;labelBackgroundColor=none;" parent="1" vertex="1">
                    <mxGeometry x="720" y="770" width="120" height="60" as="geometry"/>
                </mxCell>
                <mxCell id="17" value="" style="endArrow=classic;html=1;fontColor=#212121;fillColor=#66FFFF;labelBackgroundColor=none;" parent="1" edge="1">
                    <mxGeometry width="50" height="50" relative="1" as="geometry">
                        <mxPoint x="140" y="160" as="sourcePoint"/>
                        <mxPoint x="300" y="160" as="targetPoint"/>
                    </mxGeometry>
                </mxCell>
                <mxCell id="18" value="" style="html=1;labelBackgroundColor=none;startArrow=none;startFill=0;startSize=6;endArrow=classic;endFill=1;endSize=6;jettySize=auto;orthogonalLoop=1;strokeWidth=1;dashed=1;fontSize=14;fontColor=#212121;fillColor=#66FFFF;" parent="1" edge="1">
                    <mxGeometry width="60" height="60" relative="1" as="geometry">
                        <mxPoint x="300" y="191" as="sourcePoint"/>
                        <mxPoint x="140" y="191" as="targetPoint"/>
                    </mxGeometry>
                </mxCell>
                <mxCell id="19" value="&lt;span style=&quot;&quot;&gt;Import shipList&lt;/span&gt;" style="text;strokeColor=none;align=center;fillColor=#FCABFF;html=1;verticalAlign=middle;whiteSpace=wrap;rounded=0;fontColor=#212121;labelBackgroundColor=none;" parent="1" vertex="1">
                    <mxGeometry x="170" y="130" width="100" height="30" as="geometry"/>
                </mxCell>
                <mxCell id="20" value="&lt;span style=&quot;&quot;&gt;Import and invoke getShippingShips&lt;/span&gt;" style="text;strokeColor=none;align=center;fillColor=#66FFFF;html=1;verticalAlign=middle;whiteSpace=wrap;rounded=0;fontColor=#212121;labelBackgroundColor=none;" parent="1" vertex="1">
                    <mxGeometry x="330" y="140" width="100" height="30" as="geometry"/>
                </mxCell>
                <mxCell id="21" value="" style="endArrow=classic;html=1;fontColor=#212121;fillColor=#66FFFF;labelBackgroundColor=none;" parent="1" edge="1">
                    <mxGeometry width="50" height="50" relative="1" as="geometry">
                        <mxPoint x="300" y="174" as="sourcePoint"/>
                        <mxPoint x="780" y="173" as="targetPoint"/>
                    </mxGeometry>
                </mxCell>
                <mxCell id="22" value="" style="html=1;labelBackgroundColor=none;startArrow=none;startFill=0;startSize=6;endArrow=classic;endFill=1;endSize=6;jettySize=auto;orthogonalLoop=1;strokeWidth=1;dashed=1;fontSize=14;fontColor=#212121;fillColor=#66FFFF;" parent="1" edge="1">
                    <mxGeometry width="60" height="60" relative="1" as="geometry">
                        <mxPoint x="780" y="182" as="sourcePoint"/>
                        <mxPoint x="300" y="182" as="targetPoint"/>
                    </mxGeometry>
                </mxCell>
                <mxCell id="23" value="&lt;span style=&quot;&quot;&gt;Import haulerList&lt;/span&gt;" style="text;strokeColor=none;align=center;fillColor=#66FFFF;html=1;verticalAlign=middle;whiteSpace=wrap;rounded=0;fontColor=#212121;labelBackgroundColor=none;" parent="1" vertex="1">
                    <mxGeometry x="170" y="200" width="100" height="30" as="geometry"/>
                </mxCell>
                <mxCell id="24" value="" style="endArrow=classic;html=1;fontColor=#212121;fillColor=#66FFFF;labelBackgroundColor=none;" parent="1" edge="1">
                    <mxGeometry width="50" height="50" relative="1" as="geometry">
                        <mxPoint x="140" y="225" as="sourcePoint"/>
                        <mxPoint x="460" y="225" as="targetPoint"/>
                    </mxGeometry>
                </mxCell>
                <mxCell id="25" value="&lt;span style=&quot;&quot;&gt;Import and invoke getHaulers&lt;/span&gt;" style="text;strokeColor=none;align=center;fillColor=#66FFFF;html=1;verticalAlign=middle;whiteSpace=wrap;rounded=0;fontColor=#212121;labelBackgroundColor=none;" parent="1" vertex="1">
                    <mxGeometry x="500" y="200" width="100" height="30" as="geometry"/>
                </mxCell>
                <mxCell id="26" value="" style="endArrow=classic;html=1;fontColor=#212121;fillColor=#66FFFF;labelBackgroundColor=none;" parent="1" edge="1">
                    <mxGeometry width="50" height="50" relative="1" as="geometry">
                        <mxPoint x="460" y="240" as="sourcePoint"/>
                        <mxPoint x="780" y="240" as="targetPoint"/>
                    </mxGeometry>
                </mxCell>
                <mxCell id="27" value="" style="html=1;labelBackgroundColor=none;startArrow=none;startFill=0;startSize=6;endArrow=classic;endFill=1;endSize=6;jettySize=auto;orthogonalLoop=1;strokeWidth=1;dashed=1;fontSize=14;fontColor=#212121;fillColor=#66FFFF;" parent="1" edge="1">
                    <mxGeometry width="60" height="60" relative="1" as="geometry">
                        <mxPoint x="779.9999999999998" y="250" as="sourcePoint"/>
                        <mxPoint x="460" y="250" as="targetPoint"/>
                    </mxGeometry>
                </mxCell>
                <mxCell id="28" value="" style="html=1;labelBackgroundColor=none;startArrow=none;startFill=0;startSize=6;endArrow=classic;endFill=1;endSize=6;jettySize=auto;orthogonalLoop=1;strokeWidth=1;dashed=1;fontSize=14;fontColor=#212121;fillColor=#66FFFF;" parent="1" edge="1">
                    <mxGeometry width="60" height="60" relative="1" as="geometry">
                        <mxPoint x="459.9999999999998" y="260" as="sourcePoint"/>
                        <mxPoint x="140" y="260" as="targetPoint"/>
                    </mxGeometry>
                </mxCell>
                <mxCell id="29" value="&lt;span style=&quot;&quot;&gt;Import dockList&lt;/span&gt;" style="text;strokeColor=none;align=center;fillColor=#66FFFF;html=1;verticalAlign=middle;whiteSpace=wrap;rounded=0;fontColor=#212121;labelBackgroundColor=none;" parent="1" vertex="1">
                    <mxGeometry x="170" y="265" width="100" height="30" as="geometry"/>
                </mxCell>
                <mxCell id="30" value="" style="endArrow=classic;html=1;fontColor=#212121;fillColor=#66FFFF;labelBackgroundColor=none;" parent="1" edge="1">
                    <mxGeometry width="50" height="50" relative="1" as="geometry">
                        <mxPoint x="140" y="292" as="sourcePoint"/>
                        <mxPoint x="619.9999999999998" y="290.9999999999999" as="targetPoint"/>
                    </mxGeometry>
                </mxCell>
                <mxCell id="31" value="&lt;span style=&quot;&quot;&gt;Import and invoke getDocks&lt;/span&gt;" style="text;strokeColor=none;align=center;fillColor=#66FFFF;html=1;verticalAlign=middle;whiteSpace=wrap;rounded=0;fontColor=#212121;labelBackgroundColor=none;" parent="1" vertex="1">
                    <mxGeometry x="650" y="270" width="100" height="30" as="geometry"/>
                </mxCell>
                <mxCell id="32" value="" style="endArrow=classic;html=1;fontColor=#212121;fillColor=#66FFFF;labelBackgroundColor=none;" parent="1" edge="1">
                    <mxGeometry width="50" height="50" relative="1" as="geometry">
                        <mxPoint x="620" y="303" as="sourcePoint"/>
                        <mxPoint x="779.9999999999998" y="303" as="targetPoint"/>
                    </mxGeometry>
                </mxCell>
                <mxCell id="33" value="" style="html=1;labelBackgroundColor=none;startArrow=none;startFill=0;startSize=6;endArrow=classic;endFill=1;endSize=6;jettySize=auto;orthogonalLoop=1;strokeWidth=1;dashed=1;fontSize=14;fontColor=#212121;fillColor=#66FFFF;" parent="1" edge="1">
                    <mxGeometry width="60" height="60" relative="1" as="geometry">
                        <mxPoint x="779.9999999999998" y="313" as="sourcePoint"/>
                        <mxPoint x="620" y="313" as="targetPoint"/>
                    </mxGeometry>
                </mxCell>
                <mxCell id="34" value="" style="html=1;labelBackgroundColor=none;startArrow=none;startFill=0;startSize=6;endArrow=classic;endFill=1;endSize=6;jettySize=auto;orthogonalLoop=1;strokeWidth=1;dashed=1;fontSize=14;fontColor=#212121;fillColor=#66FFFF;" parent="1" edge="1">
                    <mxGeometry width="60" height="60" relative="1" as="geometry">
                        <mxPoint x="619.9999999999998" y="320" as="sourcePoint"/>
                        <mxPoint x="140" y="320" as="targetPoint"/>
                    </mxGeometry>
                </mxCell>
                <mxCell id="35" value="&lt;span style=&quot;&quot;&gt;Invoke dockList()&lt;/span&gt;" style="text;strokeColor=none;align=center;fillColor=#66FFFF;html=1;verticalAlign=middle;whiteSpace=wrap;rounded=0;fontColor=#212121;labelBackgroundColor=none;" parent="1" vertex="1">
                    <mxGeometry x="170" y="330" width="100" height="30" as="geometry"/>
                </mxCell>
                <mxCell id="36" value="" style="endArrow=classic;html=1;fontColor=#212121;fillColor=#66FFFF;labelBackgroundColor=none;" parent="1" edge="1">
                    <mxGeometry width="50" height="50" relative="1" as="geometry">
                        <mxPoint x="140" y="356" as="sourcePoint"/>
                        <mxPoint x="619.9999999999998" y="354.9999999999999" as="targetPoint"/>
                    </mxGeometry>
                </mxCell>
                <mxCell id="37" value="" style="html=1;labelBackgroundColor=none;startArrow=none;startFill=0;startSize=6;endArrow=classic;endFill=1;endSize=6;jettySize=auto;orthogonalLoop=1;strokeWidth=1;dashed=1;fontSize=14;fontColor=#212121;fillColor=#66FFFF;" parent="1" edge="1">
                    <mxGeometry width="60" height="60" relative="1" as="geometry">
                        <mxPoint x="619.9999999999998" y="416" as="sourcePoint"/>
                        <mxPoint x="140" y="416" as="targetPoint"/>
                    </mxGeometry>
                </mxCell>
                <mxCell id="39" value="&lt;span style=&quot;&quot;&gt;Invoke haulerList()&lt;/span&gt;" style="text;strokeColor=none;align=center;fillColor=#66FFFF;html=1;verticalAlign=middle;whiteSpace=wrap;rounded=0;fontColor=#212121;labelBackgroundColor=none;" parent="1" vertex="1">
                    <mxGeometry x="160" y="425" width="110" height="30" as="geometry"/>
                </mxCell>
                <mxCell id="40" value="" style="endArrow=classic;html=1;fontColor=#212121;fillColor=#66FFFF;labelBackgroundColor=none;" parent="1" edge="1">
                    <mxGeometry width="50" height="50" relative="1" as="geometry">
                        <mxPoint x="140" y="455" as="sourcePoint"/>
                        <mxPoint x="460" y="455" as="targetPoint"/>
                    </mxGeometry>
                </mxCell>
                <mxCell id="41" value="" style="html=1;labelBackgroundColor=none;startArrow=none;startFill=0;startSize=6;endArrow=classic;endFill=1;endSize=6;jettySize=auto;orthogonalLoop=1;strokeWidth=1;dashed=1;fontSize=14;fontColor=#212121;fillColor=#66FFFF;" parent="1" edge="1">
                    <mxGeometry width="60" height="60" relative="1" as="geometry">
                        <mxPoint x="459.9999999999998" y="520" as="sourcePoint"/>
                        <mxPoint x="140" y="520" as="targetPoint"/>
                    </mxGeometry>
                </mxCell>
                <mxCell id="43" value="&lt;span style=&quot;&quot;&gt;Invoke shippingShipList()&lt;/span&gt;" style="text;strokeColor=none;align=center;fillColor=#66FFFF;html=1;verticalAlign=middle;whiteSpace=wrap;rounded=0;fontColor=#212121;labelBackgroundColor=none;" parent="1" vertex="1">
                    <mxGeometry x="165" y="530" width="110" height="30" as="geometry"/>
                </mxCell>
                <mxCell id="44" value="" style="endArrow=classic;html=1;fontColor=#212121;fillColor=#66FFFF;labelBackgroundColor=none;" parent="1" edge="1">
                    <mxGeometry width="50" height="50" relative="1" as="geometry">
                        <mxPoint x="140" y="563" as="sourcePoint"/>
                        <mxPoint x="300" y="563" as="targetPoint"/>
                    </mxGeometry>
                </mxCell>
                <mxCell id="45" value="" style="html=1;labelBackgroundColor=none;startArrow=none;startFill=0;startSize=6;endArrow=classic;endFill=1;endSize=6;jettySize=auto;orthogonalLoop=1;strokeWidth=1;dashed=1;fontSize=14;fontColor=#212121;fillColor=#66FFFF;" parent="1" edge="1">
                    <mxGeometry width="60" height="60" relative="1" as="geometry">
                        <mxPoint x="300" y="625" as="sourcePoint"/>
                        <mxPoint x="140" y="625" as="targetPoint"/>
                    </mxGeometry>
                </mxCell>
                <mxCell id="47" value="Dynamically add &lt;br&gt;HTML to the DOM" style="shape=display;whiteSpace=wrap;html=1;labelBackgroundColor=none;fontColor=#212121;fillColor=#66FFFF;" parent="1" vertex="1">
                    <mxGeometry x="140" y="690" width="140" height="50" as="geometry"/>
                </mxCell>
                <mxCell id="48" value="" style="curved=1;endArrow=classic;html=1;labelBackgroundColor=none;fillColor=#66FFFF;" edge="1" parent="1">
                    <mxGeometry width="50" height="50" relative="1" as="geometry">
                        <mxPoint x="300" y="608" as="sourcePoint"/>
                        <mxPoint x="300" y="618" as="targetPoint"/>
                        <Array as="points">
                            <mxPoint x="370" y="598"/>
                            <mxPoint x="320" y="548"/>
                        </Array>
                    </mxGeometry>
                </mxCell>
                <mxCell id="49" value="&lt;meta charset=&quot;utf-8&quot;&gt;&lt;b style=&quot;border-color: rgb(0, 0, 0); font-family: Helvetica; font-size: 12px; font-style: normal; font-variant-ligatures: normal; font-variant-caps: normal; letter-spacing: normal; orphans: 2; text-align: center; text-indent: 0px; text-transform: none; widows: 2; word-spacing: 0px; -webkit-text-stroke-width: 0px; background-color: rgb(42, 37, 47); text-decoration-thickness: initial; text-decoration-style: initial; text-decoration-color: initial;&quot;&gt;Loop:&lt;/b&gt;&lt;span style=&quot;font-family: Helvetica; font-size: 12px; font-style: normal; font-variant-ligatures: normal; font-variant-caps: normal; font-weight: 400; letter-spacing: normal; orphans: 2; text-align: center; text-indent: 0px; text-transform: none; widows: 2; word-spacing: 0px; -webkit-text-stroke-width: 0px; background-color: rgb(42, 37, 47); text-decoration-thickness: initial; text-decoration-style: initial; text-decoration-color: initial; float: none; display: inline !important;&quot;&gt;&amp;nbsp;Build HTML string&lt;/span&gt;" style="text;whiteSpace=wrap;html=1;fontColor=#FCABFF;" vertex="1" parent="1">
                    <mxGeometry x="310" y="607" width="140" height="30" as="geometry"/>
                </mxCell>
                <mxCell id="50" value="&lt;meta charset=&quot;utf-8&quot;&gt;&lt;b style=&quot;border-color: rgb(0, 0, 0); color: rgb(252, 171, 255); font-family: Helvetica; font-size: 12px; font-style: normal; font-variant-ligatures: normal; font-variant-caps: normal; letter-spacing: normal; orphans: 2; text-align: center; text-indent: 0px; text-transform: none; widows: 2; word-spacing: 0px; -webkit-text-stroke-width: 0px; background-color: rgb(42, 37, 47); text-decoration-thickness: initial; text-decoration-style: initial; text-decoration-color: initial;&quot;&gt;Loop:&lt;/b&gt;&lt;span style=&quot;color: rgb(252, 171, 255); font-family: Helvetica; font-size: 12px; font-style: normal; font-variant-ligatures: normal; font-variant-caps: normal; font-weight: 400; letter-spacing: normal; orphans: 2; text-align: center; text-indent: 0px; text-transform: none; widows: 2; word-spacing: 0px; -webkit-text-stroke-width: 0px; background-color: rgb(42, 37, 47); text-decoration-thickness: initial; text-decoration-style: initial; text-decoration-color: initial; float: none; display: inline !important;&quot;&gt;&amp;nbsp;Build HTML string&lt;/span&gt;" style="text;whiteSpace=wrap;html=1;fontColor=#FCABFF;" vertex="1" parent="1">
                    <mxGeometry x="465" y="498" width="170" height="40" as="geometry"/>
                </mxCell>
                <mxCell id="51" value="" style="curved=1;endArrow=classic;html=1;labelBackgroundColor=none;fillColor=#66FFFF;" edge="1" parent="1">
                    <mxGeometry width="50" height="50" relative="1" as="geometry">
                        <mxPoint x="460" y="500" as="sourcePoint"/>
                        <mxPoint x="460" y="510" as="targetPoint"/>
                        <Array as="points">
                            <mxPoint x="530" y="490"/>
                            <mxPoint x="510" y="470"/>
                            <mxPoint x="480" y="440"/>
                        </Array>
                    </mxGeometry>
                </mxCell>
                <mxCell id="52" value="" style="curved=1;endArrow=classic;html=1;labelBackgroundColor=none;fillColor=#66FFFF;" edge="1" parent="1">
                    <mxGeometry width="50" height="50" relative="1" as="geometry">
                        <mxPoint x="620" y="400" as="sourcePoint"/>
                        <mxPoint x="620" y="410" as="targetPoint"/>
                        <Array as="points">
                            <mxPoint x="690" y="390"/>
                            <mxPoint x="640" y="340"/>
                        </Array>
                    </mxGeometry>
                </mxCell>
                <mxCell id="53" value="&lt;meta charset=&quot;utf-8&quot;&gt;&lt;b style=&quot;border-color: rgb(0, 0, 0); color: rgb(252, 171, 255); font-family: Helvetica; font-size: 12px; font-style: normal; font-variant-ligatures: normal; font-variant-caps: normal; letter-spacing: normal; orphans: 2; text-align: center; text-indent: 0px; text-transform: none; widows: 2; word-spacing: 0px; -webkit-text-stroke-width: 0px; background-color: rgb(42, 37, 47); text-decoration-thickness: initial; text-decoration-style: initial; text-decoration-color: initial;&quot;&gt;Loop:&lt;/b&gt;&lt;span style=&quot;color: rgb(252, 171, 255); font-family: Helvetica; font-size: 12px; font-style: normal; font-variant-ligatures: normal; font-variant-caps: normal; font-weight: 400; letter-spacing: normal; orphans: 2; text-align: center; text-indent: 0px; text-transform: none; widows: 2; word-spacing: 0px; -webkit-text-stroke-width: 0px; background-color: rgb(42, 37, 47); text-decoration-thickness: initial; text-decoration-style: initial; text-decoration-color: initial; float: none; display: inline !important;&quot;&gt;&amp;nbsp;Build HTML string&lt;/span&gt;" style="text;whiteSpace=wrap;html=1;fontColor=#FCABFF;" vertex="1" parent="1">
                    <mxGeometry x="632" y="394" width="170" height="40" as="geometry"/>
                </mxCell>
            </root>
        </mxGraphModel>
    </diagram>
</mxfile>